<?xml version="1.0" encoding="UTF-8"?>
<svg version="1.1" xmlns="http://www.w3.org/2000/svg" width="500" height="500">
<path d="M0 0 C0.66 0.33 1.32 0.66 2 1 C-0.203593 14.29188544 -10.3989611 28.95556837 -19 39 C-19.66 39 -20.32 39 -21 39 C-21.226875 39.556875 -21.45375 40.11375 -21.6875 40.6875 C-23.38572802 43.67961603 -25.50764196 45.61600535 -28 48 C-28.53238281 48.56460938 -29.06476563 49.12921875 -29.61328125 49.7109375 C-38.80422641 59.35454163 -49.63615614 67.1288386 -61 74 C-62.55267578 75.00933594 -62.55267578 75.00933594 -64.13671875 76.0390625 C-118.78602521 111.09666332 -190.66823787 118.85883384 -253.875 124.375 C-254.83003418 124.46058167 -255.78506836 124.54616333 -256.76904297 124.63433838 C-270.55880688 125.85141573 -284.1539046 126.14622197 -298 126 C-298 116.43 -298 106.86 -298 97 C-291.44125 96.8453125 -291.44125 96.8453125 -284.75 96.6875 C-235.81388784 95.26337864 -186.73529409 91.23664452 -139 80 C-138.06333496 79.78118164 -137.12666992 79.56236328 -136.16162109 79.33691406 C-108.23285087 72.71398421 -80.66350742 62.79687035 -56 48 C-55.34435059 47.61618164 -54.68870117 47.23236328 -54.01318359 46.83691406 C-43.19264968 40.49611815 -33.47780977 33.20364713 -24 25 C-23.39994141 24.48115234 -22.79988281 23.96230469 -22.18164062 23.42773438 C-15.36021457 17.46939663 -9.29204951 11.32933982 -3.70703125 4.1796875 C-2 2 -2 2 0 0 Z M-18 31 C-17 33 -17 33 -17 33 Z M-19 33 C-18 35 -18 35 -18 35 Z M-25 37 C-24 39 -24 39 -24 39 Z M-22 37 C-21 39 -21 39 -21 39 Z M-149 84 C-148.67 84.66 -148.34 85.32 -148 86 C-147.34 85.34 -146.68 84.68 -146 84 C-146.99 84 -147.98 84 -149 84 Z " fill="#39B5FC" transform="translate(402,181)"/>
<path d="M0 0 C0 9.57 0 19.14 0 29 C-3.20074219 29.12117188 -6.40148437 29.24234375 -9.69921875 29.3671875 C-57.40243841 31.1984157 -104.11168644 34.74059183 -151 44 C-151.80219971 44.14912842 -152.60439941 44.29825684 -153.4309082 44.4519043 C-156.79381791 45.16935486 -160.09605547 46.07859001 -163.40625 47.00390625 C-164.11929794 47.20262329 -164.83234589 47.40134033 -165.56700134 47.6060791 C-181.34745318 52.02587636 -196.88647676 56.60196271 -212 63 C-213.22831543 63.50732666 -213.22831543 63.50732666 -214.48144531 64.02490234 C-243.87347372 76.23276262 -272.83660176 95.01282228 -293 120 C-293.72445312 120.89460938 -294.44890625 121.78921875 -295.1953125 122.7109375 C-297.14157028 125.1318923 -299.07603649 127.56131379 -301 130 C-301.33 129.34 -301.66 128.68 -302 128 C-301.12860138 125.529006 -300.19189254 123.19889662 -299.125 120.8125 C-298.80837402 120.0999707 -298.49174805 119.38744141 -298.16552734 118.65332031 C-292.7168473 106.71209119 -285.70140818 94.87876574 -277 85 C-276.34 85 -275.68 85 -275 85 C-274.7834375 84.45859375 -274.566875 83.9171875 -274.34375 83.359375 C-272.53500003 80.18354656 -270.08276201 77.79271919 -267.5 75.25 C-267.00113281 74.74339844 -266.50226563 74.23679687 -265.98828125 73.71484375 C-262.25341139 70 -262.25341139 70 -260 70 C-260 69.34 -260 68.68 -260 68 C-258.64916992 66.75415039 -258.64916992 66.75415039 -256.73046875 65.34765625 C-256.01624756 64.82389404 -255.30202637 64.30013184 -254.56616211 63.76049805 C-253.38872437 62.91998901 -253.38872437 62.91998901 -252.1875 62.0625 C-251.37869385 61.48346924 -250.5698877 60.90443848 -249.73657227 60.30786133 C-236.0060682 50.63683365 -221.38091552 42.7038814 -206 36 C-205.27893066 35.67966797 -204.55786133 35.35933594 -203.81494141 35.02929688 C-183.05141812 25.89389148 -160.24007633 19.35411558 -138 15 C-137.07783691 14.80696289 -136.15567383 14.61392578 -135.20556641 14.41503906 C-104.25859436 7.94036975 -73.18600558 4.25774582 -41.6875 1.6875 C-40.10840347 1.55646881 -40.10840347 1.55646881 -38.49740601 1.42279053 C-25.62000237 0.36827609 -12.92202214 -0.18124395 0 0 Z M-163 27 C-163.33 27.66 -163.66 28.32 -164 29 C-163.34 29 -162.68 29 -162 29 C-162.33 28.34 -162.66 27.68 -163 27 Z " fill="#38B6FC" transform="translate(418,107)"/>
<path d="M0 0 C1 3 1 3 -0.3359375 6.15234375 C-1.00121169 7.42172138 -1.68200307 8.68304213 -2.375 9.9375 C-2.74294678 10.60845703 -3.11089355 11.27941406 -3.48999023 11.97070312 C-28.11475291 55.83600252 -78.69109908 76.03757211 -124.74169922 89.04907227 C-164.75670571 99.94821723 -205.93728579 106.3909866 -247.08203125 111.15234375 C-248.20092491 111.28301239 -248.20092491 111.28301239 -249.34242249 111.4163208 C-252.59663504 111.78336065 -255.71861399 112 -259 112 C-258.0792866 108.64020372 -257.05526607 105.31993819 -256 102 C-255.79068848 101.33613281 -255.58137695 100.67226563 -255.36572266 99.98828125 C-254.66668753 97.81548417 -253.93121004 95.65787493 -253.1875 93.5 C-252.96368652 92.79359375 -252.73987305 92.0871875 -252.50927734 91.359375 C-251.79296875 89.34375 -251.79296875 89.34375 -250 86 C-244.51983333 83.44154248 -238.33691484 83.16334981 -232.39453125 82.484375 C-230.04219819 82.2034442 -227.68990479 81.92218105 -225.33764648 81.640625 C-224.10891815 81.49560547 -222.88018982 81.35058594 -221.61422729 81.20117188 C-149.3426615 72.62430791 -70.00204461 61.2696475 -12.625 12.875 C-11.76805542 12.15691162 -11.76805542 12.15691162 -10.89379883 11.42431641 C-6.83923086 7.94150843 -3.37469658 4.14090991 0 0 Z " fill="#1E7BB2" transform="translate(373,240)"/>
<path d="M0 0 C-0.63647313 6.00103235 -2.87721978 11.30423384 -5.0625 16.875 C-5.43955078 17.84953125 -5.81660156 18.8240625 -6.20507812 19.828125 C-7.13164376 22.22077549 -8.06340791 24.61126054 -9 27 C-10.02640594 27.13035141 -10.02640594 27.13035141 -11.07354736 27.26333618 C-92.14296242 37.246765 -92.14296242 37.246765 -171 58 C-171.85883789 58.29084473 -172.71767578 58.58168945 -173.60253906 58.88134766 C-198.05123045 67.2649845 -226.38784486 78.48383456 -244.57470703 97.66040039 C-246 99 -246 99 -248 99 C-248.23460937 99.56203125 -248.46921875 100.1240625 -248.7109375 100.703125 C-250.30663 103.54635891 -252.28924543 105.48098127 -254.625 107.75 C-255.44226563 108.54921875 -256.25953125 109.3484375 -257.1015625 110.171875 C-257.72804688 110.77515625 -258.35453125 111.3784375 -259 112 C-259.33 111.34 -259.66 110.68 -260 110 C-245.19544384 73.72450859 -211.80238451 52.47590664 -177.05517578 37.86865234 C-175.22487952 37.09504886 -173.40642261 36.29356878 -171.58984375 35.48828125 C-125.01923311 15.60726033 -72.11181034 8.78625736 -22.30859375 2.19921875 C-21.50060333 2.09221649 -20.69261292 1.98521423 -19.86013794 1.87496948 C-5.52315938 0 -5.52315938 0 0 0 Z " fill="#1D7BB2" transform="translate(408,62)"/>
<path d="M0 0 C0.495 0.99 0.495 0.99 1 2 C-0.20705153 4.56877549 -1.46726677 6.98071857 -2.875 9.4375 C-3.2884668 10.16106689 -3.70193359 10.88463379 -4.12792969 11.63012695 C-7.83929854 17.97284787 -12.0218216 23.58280114 -17 29 C-17.45294434 29.50063965 -17.90588867 30.0012793 -18.37255859 30.51708984 C-38.5645388 52.61077017 -65.56749576 66.00708203 -93 77 C-90.87332376 70.49522212 -88.65618523 64.03194558 -86.25 57.625 C-85.940625 56.73683594 -85.63125 55.84867187 -85.3125 54.93359375 C-83.68586216 50.66689687 -82.83968544 48.50713675 -78.84375 46.09375 C-76.94109375 45.55234375 -76.94109375 45.55234375 -75 45 C-73.46227952 44.50127072 -71.92590005 43.99839464 -70.390625 43.4921875 C-69.14913696 43.10268921 -69.14913696 43.10268921 -67.88256836 42.70532227 C-40.76678993 34.15290064 -19.7586485 20.37933903 0 0 Z " fill="#1C7BB3" transform="translate(350,287)"/>
<path d="M0 0 C1.8228263 5.46847891 -1.81613152 10.87129591 -3.9375 16 C-4.63069336 17.80210938 -4.63069336 17.80210938 -5.33789062 19.640625 C-8.84110323 28.12058605 -8.84110323 28.12058605 -11.78881836 30.35742188 C-13.85454727 31.14876423 -15.82805754 31.58525483 -18 32 C-19.6977346 32.53230473 -21.38890442 33.08584075 -23.07421875 33.65625 C-23.97873779 33.95072021 -24.88325684 34.24519043 -25.81518555 34.54858398 C-47.94598554 41.87911757 -66.26546297 52.45671718 -83.2109375 68.421875 C-86.06516452 71.06023611 -88.99536731 73.53602393 -92 76 C-90.37057222 62.05637209 -76.46240187 49.34774084 -67 40 C-66.16855469 39.15824219 -65.33710938 38.31648438 -64.48046875 37.44921875 C-46.76449955 20.45758219 -22.25611084 9.58906903 0 0 Z " fill="#207BB0" transform="translate(264,50)"/>
<path d="M0 0 C5.94 0 11.88 0 18 0 C18 9.57 18 19.14 18 29 C14.72964844 29.13277344 11.45929688 29.26554687 8.08984375 29.40234375 C4.83601574 29.53467226 1.58219225 29.66711153 -1.67163086 29.79956055 C-3.89102722 29.88984487 -6.11042809 29.98001849 -8.32983398 30.07006836 C-23.55437369 30.68788577 -38.77771316 31.32889274 -54 32 C-54 31.34 -54 30.68 -54 30 C-59.28 29.67 -64.56 29.34 -70 29 C-70 28.34 -70 27.68 -70 27 C-57.46 27 -44.92 27 -32 27 C-32 26.34 -32 25.68 -32 25 C-26.72 25 -21.44 25 -16 25 C-16 25.99 -16 26.98 -16 28 C-5.44 27.67 5.12 27.34 16 27 C16 18.75 16 10.5 16 2 C10.72 1.67 5.44 1.34 0 1 C0 0.67 0 0.34 0 0 Z " fill="#43B5F3" transform="translate(400,107)"/>
<path d="M0 0 C0.495 0.99 0.495 0.99 1 2 C-0.20705153 4.56877549 -1.46726677 6.98071857 -2.875 9.4375 C-3.2884668 10.16106689 -3.70193359 10.88463379 -4.12792969 11.63012695 C-9.48173317 20.77976491 -16.21846274 28.35067969 -23.625 35.875 C-24.15125977 36.41084717 -24.67751953 36.94669434 -25.21972656 37.4987793 C-28.88362125 41.13132454 -32.61548044 44.26097709 -37 47 C-37.99 46.67 -38.98 46.34 -40 46 C-39.21625 45.566875 -38.4325 45.13375 -37.625 44.6875 C-34.78301625 43.10779753 -34.78301625 43.10779753 -33 40 C-32.01 40 -31.02 40 -30 40 C-29.67 38.68 -29.34 37.36 -29 36 C-28.34 36 -27.68 36 -27 36 C-27 35.01 -27 34.02 -27 33 C-27.99 33 -28.98 33 -30 33 C-30 32.34 -30 31.68 -30 31 C-27.24075815 29.19588033 -26.11027897 28.9872755 -22.75 29.375 C-21.8425 29.58125 -20.935 29.7875 -20 30 C-20.495 27.525 -20.495 27.525 -21 25 C-24.8063457 25.67170806 -28.35206816 26.72746564 -32 28 C-29.56171308 25.37662859 -26.8680817 23.42429885 -23.9375 21.375 C-15.18667874 15.07163798 -7.51798458 7.70698419 0 0 Z " fill="#2B7BA8" transform="translate(350,287)"/>
<path d="M0 0 C0.78117187 0.01804687 1.56234375 0.03609375 2.3671875 0.0546875 C2.94726562 0.07789063 3.52734375 0.10109375 4.125 0.125 C3.135 0.62 3.135 0.62 2.125 1.125 C2.125 1.785 2.125 2.445 2.125 3.125 C1.46113281 3.08117187 0.79726562 3.03734375 0.11328125 2.9921875 C-2.821937 3.00075748 -5.08671002 3.17996126 -7.875 4.125 C-11.71798683 8.7027997 -12.93508094 13.26710874 -12.875 19.125 C-14.375 20.9375 -14.375 20.9375 -15.875 22.125 C-12.48936362 23.81781819 -8.6586791 23.27021031 -4.9375 23.25 C-3.6527478 23.24601196 -3.6527478 23.24601196 -2.34204102 23.24194336 C8.17964284 23.63438467 8.17964284 23.63438467 18.125 21.125 C15.485 20.465 12.845 19.805 10.125 19.125 C10.125 18.465 10.125 17.805 10.125 17.125 C15.57193314 17.02811779 20.76404667 16.99637825 26.125 18.125 C26.125 18.785 26.125 19.445 26.125 20.125 C29.755 19.795 33.385 19.465 37.125 19.125 C37.62 20.115 37.62 20.115 38.125 21.125 C31.95498494 21.96596442 25.78432063 22.80193996 19.61303711 23.63354492 C17.51910712 23.91639531 15.42535223 24.20054547 13.33178711 24.48608398 C-8.97638656 27.52689734 -8.97638656 27.52689734 -19.875 28.125 C-18.93890391 24.76920073 -17.93047168 21.44558507 -16.875 18.125 C-16.66568848 17.46113281 -16.45637695 16.79726563 -16.24072266 16.11328125 C-15.54168753 13.94048417 -14.80621004 11.78287493 -14.0625 9.625 C-13.83868652 8.91859375 -13.61487305 8.2121875 -13.38427734 7.484375 C-12.12921413 3.95274518 -11.38061685 2.38019663 -7.98046875 0.6640625 C-5.23081494 0.1867641 -2.78261763 -0.08432175 0 0 Z M-9.875 14.125 C-8.555 14.785 -7.235 15.445 -5.875 16.125 C-5.875 17.775 -5.875 19.425 -5.875 21.125 C-6.535 21.125 -7.195 21.125 -7.875 21.125 C-7.875 20.135 -7.875 19.145 -7.875 18.125 C-9.525 18.125 -11.175 18.125 -12.875 18.125 C-11.885 16.805 -10.895 15.485 -9.875 14.125 Z " fill="#2E7DA8" transform="translate(133.875,323.875)"/>
<path d="M0 0 C1.67542976 0.28604898 3.34385343 0.61781233 5 1 C5.33 1.99 5.66 2.98 6 4 C5.67 4.66 5.34 5.32 5 6 C3.35 6 1.7 6 0 6 C0 6.33 0 6.66 0 7 C-1.65 7 -3.3 7 -5 7 C-5 7.66 -5 8.32 -5 9 C-4.01 9 -3.02 9 -2 9 C-2 9.99 -2 10.98 -2 12 C-2.66 12 -3.32 12 -4 12 C-4.103125 12.639375 -4.20625 13.27875 -4.3125 13.9375 C-4.539375 14.618125 -4.76625 15.29875 -5 16 C-5.99 16.33 -6.98 16.66 -8 17 C-8.4125 17.639375 -8.825 18.27875 -9.25 18.9375 C-11.72895791 21.85912896 -14.34559443 22.13623141 -18 23 C-18.66 23.33 -19.32 23.66 -20 24 C-19.34 22.35 -18.68 20.7 -18 19 C-18.99 19 -19.98 19 -21 19 C-21 17.02 -21 15.04 -21 13 C-20.01 12.67 -19.02 12.34 -18 12 C-17.34 12.33 -16.68 12.66 -16 13 C-16.33 11.68 -16.66 10.36 -17 9 C-11.8226207 5.51628467 -6.88567238 3.0651482 -1 1 C-0.67 0.67 -0.34 0.34 0 0 Z " fill="#1C7DB4" transform="translate(325,311)"/>
<path d="M0 0 C1.65 0.66 3.3 1.32 5 2 C4.360625 2.495 3.72125 2.99 3.0625 3.5 C-0.41605643 6.3396379 -3.709373 9.34913682 -7.01171875 12.390625 C-9 14 -9 14 -11 14 C-11.23460937 14.56203125 -11.46921875 15.1240625 -11.7109375 15.703125 C-13.30663 18.54635891 -15.28924543 20.48098127 -17.625 22.75 C-18.44226563 23.54921875 -19.25953125 24.3484375 -20.1015625 25.171875 C-20.72804687 25.77515625 -21.35453125 26.3784375 -22 27 C-22.33 26.34 -22.66 25.68 -23 25 C-21.85178433 22.30006134 -20.64391379 19.73244815 -19.3125 17.125 C-18.95994141 16.40441406 -18.60738281 15.68382812 -18.24414062 14.94140625 C-16.2649561 11.01198322 -14.38532248 7.91917198 -11 5 C-11 5.99 -11 6.98 -11 8 C-9.35 8.33 -7.7 8.66 -6 9 C-6 8.01 -6 7.02 -6 6 C-4.35 5.67 -2.7 5.34 -1 5 C-0.67 3.35 -0.34 1.7 0 0 Z " fill="#2D80B4" transform="translate(171,147)"/>
<path d="M0 0 C0.7425 0.0825 1.485 0.165 2.25 0.25 C2.58 1.57 2.91 2.89 3.25 4.25 C4.9 4.58 6.55 4.91 8.25 5.25 C8.58 6.24 8.91 7.23 9.25 8.25 C6.94 8.58 4.63 8.91 2.25 9.25 C2.25 10.57 2.25 11.89 2.25 13.25 C-1.56756824 14.62432457 -4.82255329 13.92975039 -8.75 13.25 C-9.02633397 8.27598851 -8.03203414 5.84149066 -4.9375 2 C-2.75 0.25 -2.75 0.25 0 0 Z " fill="#1C7AB1" transform="translate(208.75,82.75)"/>
<path d="M0 0 C0.33 0 0.66 0 1 0 C0.67 3.96 0.34 7.92 0 12 C-0.66 12 -1.32 12 -2 12 C-1.67 12.66 -1.34 13.32 -1 14 C-0.01 14.33 0.98 14.66 2 15 C2 16.32 2 17.64 2 19 C-0.31 19 -2.62 19 -5 19 C-5.33 20.65 -5.66 22.3 -6 24 C-4.44539063 23.36771484 -4.44539063 23.36771484 -2.859375 22.72265625 C-1.48963909 22.16913284 -0.11984432 21.61575506 1.25 21.0625 C1.93191406 20.78470703 2.61382812 20.50691406 3.31640625 20.22070312 C6.51923638 18.93024244 9.63837534 17.78199956 13 17 C10.64875278 19.6741653 8.38294128 20.89440638 5.11328125 22.26171875 C4.17548828 22.65810547 3.23769531 23.05449219 2.27148438 23.46289062 C1.29501953 23.86701172 0.31855469 24.27113281 -0.6875 24.6875 C-1.67556641 25.10322266 -2.66363281 25.51894531 -3.68164062 25.94726562 C-6.11842741 26.97142239 -8.55785486 27.98870265 -11 29 C-8.88355257 22.35831389 -6.4326092 15.89538217 -3.8125 9.4375 C-3.44447266 8.52419922 -3.07644531 7.61089844 -2.69726562 6.66992188 C-1.80056454 4.44563736 -0.90144402 2.22236555 0 0 Z " fill="#267AB4" transform="translate(268,335)"/>
<path d="M0 0 C-2.10320063 0.50404808 -4.20759791 1.00310508 -6.3125 1.5 C-8.07013672 1.91765625 -8.07013672 1.91765625 -9.86328125 2.34375 C-13 3 -13 3 -16 3 C-15.67 3.66 -15.34 4.32 -15 5 C-13.10466658 5.46523063 -13.10466658 5.46523063 -10.9375 5.625 C-9.638125 5.74875 -8.33875 5.8725 -7 6 C-7 6.99 -7 7.98 -7 9 C-12.28 8.67 -17.56 8.34 -23 8 C-23.33 7.01 -23.66 6.02 -24 5 C-24.928125 5.165 -25.85625 5.33 -26.8125 5.5 C-31.85733621 6.23700282 -36.91435711 6.08276815 -42 6 C-42 5.67 -42 5.34 -42 5 C-36.66308034 4.116981 -31.32459019 3.24445713 -25.984375 2.3815918 C-24.16815017 2.08661742 -22.35238688 1.78878638 -20.53710938 1.48803711 C-17.92694477 1.05610342 -15.31528978 0.63448885 -12.703125 0.21484375 C-11.89256653 0.07843979 -11.08200806 -0.05796417 -10.24688721 -0.19850159 C-6.50870509 -0.78934663 -3.62397641 -1.08977238 0 0 Z " fill="#2F7EAD" transform="translate(375,67)"/>
<path d="M0 0 C-2.5600213 1.70668087 -4.4804058 2.64268248 -7.32421875 3.6640625 C-8.18080078 3.97778809 -9.03738281 4.29151367 -9.91992188 4.61474609 C-10.83322266 4.94812988 -11.74652344 5.28151367 -12.6875 5.625 C-20.99873158 8.71378817 -28.90114446 12.22186515 -36.75 16.3359375 C-39.46757829 17.72738985 -42.14465558 18.92924584 -45 20 C-45 19.01 -45 18.02 -45 17 C-42.03 16.01 -39.06 15.02 -36 14 C-36 13.34 -36 12.68 -36 12 C-33.69 11.34 -31.38 10.68 -29 10 C-28.84850702 6.37114676 -28.84850702 6.37114676 -30 3 C-28.02 2.67 -26.04 2.34 -24 2 C-24.33 3.65 -24.66 5.3 -25 7 C-24.01 6.34 -23.02 5.68 -22 5 C-19.87890625 4.40234375 -19.87890625 4.40234375 -17.5625 3.9375 C-14.68939616 3.34926723 -11.84051225 2.73115691 -9 2 C-9 1.34 -9 0.68 -9 0 C-5.62182575 -0.84454356 -3.32534757 -1.10844919 0 0 Z " fill="#2D7FAC" transform="translate(237,119)"/>
<path d="M0 0 C1.65 0 3.3 0 5 0 C5 0.66 5 1.32 5 2 C4.34 2 3.68 2 3 2 C3 2.99 3 3.98 3 5 C2.01 5.66 1.02 6.32 0 7 C0 7.66 0 8.32 0 9 C0.99 9 1.98 9 3 9 C3.2475 8.401875 3.495 7.80375 3.75 7.1875 C5.19192497 4.66413131 6.52549626 3.49969924 9 2 C9.99 2 10.98 2 12 2 C12 1.34 12 0.68 12 0 C12.99 0 13.98 0 15 0 C15 0.99 15 1.98 15 3 C14.34 3 13.68 3 13 3 C12.896875 3.639375 12.79375 4.27875 12.6875 4.9375 C12.460625 5.618125 12.23375 6.29875 12 7 C11.01 7.33 10.02 7.66 9 8 C8.38125 8.9590625 8.38125 8.9590625 7.75 9.9375 C5.27104209 12.85912896 2.65440557 13.13623141 -1 14 C-1.99 14.495 -1.99 14.495 -3 15 C-2.34 13.35 -1.68 11.7 -1 10 C-1.99 10 -2.98 10 -4 10 C-4 8.02 -4 6.04 -4 4 C-3.01 3.67 -2.02 3.34 -1 3 C-0.34 3.33 0.32 3.66 1 4 C0.67 2.68 0.34 1.36 0 0 Z " fill="#167CB9" transform="translate(308,320)"/>
<path d="M0 0 C0.66 0.33 1.32 0.66 2 1 C1.67 1.99 1.34 2.98 1 4 C-0.33333333 4.33333333 -1.66666667 4.66666667 -3 5 C-3.33 5.99 -3.66 6.98 -4 8 C-5.875 8.625 -5.875 8.625 -8 9 C-8.99 9.33 -9.98 9.66 -11 10 C-11 10.66 -11 11.32 -11 12 C-11.66 12 -12.32 12 -13 12 C-13 12.66 -13 13.32 -13 14 C-14.2065625 14.3403125 -14.2065625 14.3403125 -15.4375 14.6875 C-16.283125 15.120625 -17.12875 15.55375 -18 16 C-18.89386164 18.54775306 -18.89386164 18.54775306 -19 21 C-21.97 21 -24.94 21 -28 21 C-28 21.99 -28 22.98 -28 24 C-30.57213134 25.61949011 -31.67669159 26.04408751 -34.75 25.625 C-35.4925 25.41875 -36.235 25.2125 -37 25 C-33.06420673 21.62537957 -28.97613735 19.24026943 -24.4375 16.8125 C-17.09001305 12.79080657 -10.56983321 8.20983589 -4 3 C-2.66988725 1.99572024 -1.33782091 0.99398843 0 0 Z " fill="#317FA8" transform="translate(357,256)"/>
<path d="M0 0 C0.66 0 1.32 0 2 0 C0.54824556 4.64733225 -2.1514398 7.72149909 -5.4375 11.1875 C-6.17323242 11.98704102 -6.17323242 11.98704102 -6.92382812 12.80273438 C-9.17189397 15.21462688 -11.24446526 17.16297684 -14 19 C-14.66 18.67 -15.32 18.34 -16 18 C-16.625 14.9375 -16.625 14.9375 -17 12 C-15.68 11.67 -14.36 11.34 -13 11 C-13 9.68 -13 8.36 -13 7 C-8.545 6.505 -8.545 6.505 -4 6 C-3.67 5.01 -3.34 4.02 -3 3 C-2.34 3 -1.68 3 -1 3 C-0.67 2.01 -0.34 1.02 0 0 Z " fill="#2079AB" transform="translate(362,259)"/>
<path d="M0 0 C0.66 1.32 1.32 2.64 2 4 C0.68 4 -0.64 4 -2 4 C-2.33 4.66 -2.66 5.32 -3 6 C-4.65 6 -6.3 6 -8 6 C-8 6.66 -8 7.32 -8 8 C-9.65 8 -11.3 8 -13 8 C-13 8.66 -13 9.32 -13 10 C-16.41299009 10.8693381 -19.83083808 11.71779224 -23.25 12.5625 C-24.21808594 12.80935547 -25.18617188 13.05621094 -26.18359375 13.31054688 C-27.11816406 13.53935547 -28.05273438 13.76816406 -29.015625 14.00390625 C-29.87446289 14.21861572 -30.73330078 14.4333252 -31.61816406 14.65454102 C-34.09236484 15.0133965 -35.64810343 14.78317203 -38 14 C-37.23969482 13.75354736 -36.47938965 13.50709473 -35.69604492 13.25317383 C-32.19101732 12.11286229 -28.68927934 10.9627461 -25.1875 9.8125 C-23.99189453 9.42513672 -22.79628906 9.03777344 -21.56445312 8.63867188 C-14.13931035 6.19060028 -7.03664754 3.4106981 0 0 Z " fill="#327EA5" transform="translate(307,320)"/>
<path d="M0 0 C0.763125 0.185625 1.52625 0.37125 2.3125 0.5625 C2.869375 0.706875 3.42625 0.85125 4 1 C4 1.66 4 2.32 4 3 C0.96638777 3.07054912 -1.76980572 3.04708519 -4.75 2.4375 C-7.02413438 1.75802104 -7.02413438 1.75802104 -9 3 C-9.65772428 6.02934491 -9.65772428 6.02934491 -10 9 C-10.66 9 -11.32 9 -12 9 C-12.33 7.68 -12.66 6.36 -13 5 C-16.3 5.33 -19.6 5.66 -23 6 C-23 6.66 -23 7.32 -23 8 C-24.41377782 8.36552803 -25.83120576 8.71695495 -27.25 9.0625 C-28.03890625 9.25972656 -28.8278125 9.45695312 -29.640625 9.66015625 C-32.12825747 10.01847417 -33.61334893 9.67152083 -36 9 C-32.14667439 7.70581502 -28.29219309 6.41510574 -24.4375 5.125 C-23.35146484 4.76019531 -22.26542969 4.39539063 -21.14648438 4.01953125 C-4.82981369 -1.43589056 -4.82981369 -1.43589056 0 0 Z " fill="#347EAC" transform="translate(279,86)"/>
<path d="M0 0 C0.33 1.32 0.66 2.64 1 4 C-2 5 -5 6 -8 7 C-8 7.66 -8 8.32 -8 9 C-6.68 9 -5.36 9 -4 9 C-4.33 10.65 -4.66 12.3 -5 14 C-5.99 14 -6.98 14 -8 14 C-8 14.99 -8 15.98 -8 17 C-9.32 17 -10.64 17 -12 17 C-12 16.34 -12 15.68 -12 15 C-12.66 15 -13.32 15 -14 15 C-14 14.34 -14 13.68 -14 13 C-12.02 12.67 -10.04 12.34 -8 12 C-8.33 11.01 -8.66 10.02 -9 9 C-10.11375 9.680625 -11.2275 10.36125 -12.375 11.0625 C-14.2734375 12.22265625 -14.2734375 12.22265625 -16 13 C-16.66 12.67 -17.32 12.34 -18 12 C-12.16594374 7.65346984 -6.4266106 3.42752566 0 0 Z " fill="#277AAA" transform="translate(204,113)"/>
<path d="M0 0 C-2.68092691 2.68092691 -4.39167363 2.38670257 -8.125 2.625 C-9.22070312 2.69976562 -10.31640625 2.77453125 -11.4453125 2.8515625 C-12.28835937 2.90054687 -13.13140625 2.94953125 -14 3 C-13.34 3.66 -12.68 4.32 -12 5 C-23.22 4.67 -34.44 4.34 -46 4 C-46 3.67 -46 3.34 -46 3 C-40.73502624 2.56864538 -35.46973024 2.14154685 -30.20410156 1.71826172 C-28.41559703 1.57390247 -26.62718332 1.42841302 -24.83886719 1.28173828 C-22.25739655 1.0702131 -19.67561856 0.86285448 -17.09375 0.65625 C-16.30383667 0.59062866 -15.51392334 0.52500732 -14.70007324 0.45739746 C-9.78292029 0.06889261 -4.93265288 -0.05895601 0 0 Z " fill="#49B2F0" transform="translate(198,273)"/>
<path d="M0 0 C1 3 1 3 -0.58203125 6.5390625 C-1.31507119 7.90669419 -2.0590375 9.26851252 -2.8125 10.625 C-3.36647461 11.66527344 -3.36647461 11.66527344 -3.93164062 12.7265625 C-6.72542547 17.86271273 -6.72542547 17.86271273 -9 19 C-9 17.35 -9 15.7 -9 14 C-10.98 14.66 -12.96 15.32 -15 16 C-14.28457031 15.29488281 -13.56914062 14.58976563 -12.83203125 13.86328125 C-10.02335285 11.05460285 -7.35067865 8.13475104 -4.6875 5.1875 C-3.36298828 3.72376953 -3.36298828 3.72376953 -2.01171875 2.23046875 C-1.34785156 1.49441406 -0.68398438 0.75835937 0 0 Z " fill="#2C82B0" transform="translate(373,240)"/>
<path d="M0 0 C6.93 0 13.86 0 21 0 C21 0.33 21 0.66 21 1 C17.08641574 1.71655029 13.17202369 2.4284924 9.25683594 3.13623047 C7.92587836 3.37748677 6.59514559 3.61998685 5.26464844 3.86376953 C3.3489079 4.21455909 1.43227474 4.56046268 -0.484375 4.90625 C-1.63647461 5.11572266 -2.78857422 5.32519531 -3.97558594 5.54101562 C-7 6 -7 6 -11 6 C-11 5.34 -11 4.68 -11 4 C-8.59454362 2.79727181 -7.05003047 2.89928528 -4.375 2.9375 C-3.14910156 2.95103516 -3.14910156 2.95103516 -1.8984375 2.96484375 C-0.95871094 2.98224609 -0.95871094 2.98224609 0 3 C0 2.01 0 1.02 0 0 Z " fill="#3281A8" transform="translate(304,98)"/>
<path d="M0 0 C0 0.66 0 1.32 0 2 C-2.64 2.33 -5.28 2.66 -8 3 C-5.36 3.66 -2.72 4.32 0 5 C0 5.33 0 5.66 0 6 C-5.28 6 -10.56 6 -16 6 C-16 5.34 -16 4.68 -16 4 C-18.97 4 -21.94 4 -25 4 C-25 3.67 -25 3.34 -25 3 C-21.39628337 2.49672003 -17.79195803 1.99794006 -14.1875 1.5 C-13.16333984 1.35691406 -12.13917969 1.21382813 -11.08398438 1.06640625 C-9.60961914 0.86337891 -9.60961914 0.86337891 -8.10546875 0.65625 C-6.74651489 0.46772461 -6.74651489 0.46772461 -5.36010742 0.27539062 C-3 0 -3 0 0 0 Z " fill="#46B2F4" transform="translate(336,113)"/>
<path d="M0 0 C1.32 0.66 2.64 1.32 4 2 C3.21516341 3.48280196 2.42190666 4.9611498 1.625 6.4375 C1.18414062 7.26121094 0.74328125 8.08492187 0.2890625 8.93359375 C-1 11 -1 11 -3 12 C-3 10.35 -3 8.7 -3 7 C-3.55429688 7.22816406 -4.10859375 7.45632812 -4.6796875 7.69140625 C-5.76636719 8.12259766 -5.76636719 8.12259766 -6.875 8.5625 C-7.95394531 8.99755859 -7.95394531 8.99755859 -9.0546875 9.44140625 C-11 10 -11 10 -13 9 C-10.30807339 5.67467889 -6.93453485 4.47545057 -3 3 C-2.01 3 -1.02 3 0 3 C0 2.01 0 1.02 0 0 Z " fill="#157DB4" transform="translate(259,53)"/>
<path d="M0 0 C-0.99 0.33 -1.98 0.66 -3 1 C-2.67 2.32 -2.34 3.64 -2 5 C-0.35 5.33 1.3 5.66 3 6 C1.68 7.32 0.36 8.64 -1 10 C-1.66 9.67 -2.32 9.34 -3 9 C-2.67 8.34 -2.34 7.68 -2 7 C-3.258125 6.814375 -4.51625 6.62875 -5.8125 6.4375 C-6.52019531 6.33308594 -7.22789062 6.22867188 -7.95703125 6.12109375 C-10.2025342 5.86095201 -10.2025342 5.86095201 -13 7 C-13 4 -13 4 -11.8125 2.4375 C-7.85063562 -0.7046683 -4.86015998 -1.38861714 0 0 Z " fill="#3FB3FA" transform="translate(349,241)"/>
<path d="M0 0 C0.66 0 1.32 0 2 0 C2 1.32 2 2.64 2 4 C2.99 4.33 3.98 4.66 5 5 C4.44449305 8.59905908 3.25112752 9.99909799 0.4375 12.25 C-0.20316406 12.77078125 -0.84382812 13.2915625 -1.50390625 13.828125 C-1.99761719 14.21484375 -2.49132812 14.6015625 -3 15 C-5.42857143 8.71428571 -5.42857143 8.71428571 -4 5 C-3.67 6.32 -3.34 7.64 -3 9 C-1.68 9 -0.36 9 1 9 C1 7.68 1 6.36 1 5 C0.01 5 -0.98 5 -2 5 C-1.34 3.35 -0.68 1.7 0 0 Z " fill="#31B9FD" transform="translate(133,205)"/>
<path d="M0 0 C2.97 0 5.94 0 9 0 C9 0.66 9 1.32 9 2 C9.93457031 1.9278125 10.86914062 1.855625 11.83203125 1.78125 C22.57076621 1.02247776 33.23718832 0.89471162 44 1 C44 1.33 44 1.66 44 2 C23.705 2.99 23.705 2.99 3 4 C3 3.34 3 2.68 3 2 C2.01 1.34 1.02 0.68 0 0 Z " fill="#48B1F0" transform="translate(343,135)"/>
<path d="M0 0 C0 0.66 0 1.32 0 2 C-0.99 2 -1.98 2 -3 2 C-1.99163938 3.23267348 -1.99163938 3.23267348 0.06640625 3.09765625 C0.89011719 3.08605469 1.71382813 3.07445312 2.5625 3.0625 C3.38878906 3.05347656 4.21507812 3.04445313 5.06640625 3.03515625 C6.02353516 3.01775391 6.02353516 3.01775391 7 3 C7.33 3.99 7.66 4.98 8 6 C2.39258264 6.10103455 -2.94806761 5.76082036 -8.5 5 C-9.59054688 4.85691406 -9.59054688 4.85691406 -10.703125 4.7109375 C-12.46935867 4.47853833 -14.23477406 4.23993362 -16 4 C-16 3.67 -16 3.34 -16 3 C-13.70887834 2.49750857 -11.41708499 1.99807883 -9.125 1.5 C-7.84882813 1.2215625 -6.57265625 0.943125 -5.2578125 0.65625 C-2 0 -2 0 0 0 Z " fill="#46B4F1" transform="translate(256,263)"/>
<path d="M0 0 C1.65 0.66 3.3 1.32 5 2 C4.319375 2.53625 3.63875 3.0725 2.9375 3.625 C0.06443777 5.94790138 -2.69794378 8.36356826 -5.44921875 10.828125 C-7 12 -7 12 -9 12 C-9.66 11.34 -10.32 10.68 -11 10 C-13.06874034 9.3574765 -13.06874034 9.3574765 -15 9 C-13.68 7.68 -12.36 6.36 -11 5 C-11 5.99 -11 6.98 -11 8 C-9.35 8.33 -7.7 8.66 -6 9 C-6 8.01 -6 7.02 -6 6 C-4.35 5.67 -2.7 5.34 -1 5 C-0.67 3.35 -0.34 1.7 0 0 Z " fill="#327CA9" transform="translate(171,147)"/>
<path d="M0 0 C0.99435406 3.09354597 0.87840996 4.90279155 0 8 C1.70900002 7.2306459 3.41716674 6.45944064 5.125 5.6875 C6.12789063 5.23503906 7.13078125 4.78257812 8.1640625 4.31640625 C10.30900949 3.32074904 12.41550378 2.2416944 14.5 1.125 C17 0 17 0 20 1 C17.50252977 2.27601331 15.00222064 3.54586171 12.5 4.8125 C11.45585937 5.34713867 11.45585937 5.34713867 10.390625 5.89257812 C5.68514633 8.26710208 0.96453699 10.22774974 -4 12 C-2.66666667 8 -1.33333333 4 0 0 Z " fill="#3F7FA1" transform="translate(261,352)"/>
<path d="M0 0 C0.33 0.66 0.66 1.32 1 2 C0.67 2.99 0.34 3.98 0 5 C1.32 4.67 2.64 4.34 4 4 C0.32167983 8.52615993 -3.41086363 12.39424999 -8 16 C-7.43555175 11.65136348 -5.84572036 8.82172345 -3.4375 5.1875 C-2.79683594 4.21167969 -2.15617188 3.23585938 -1.49609375 2.23046875 C-0.75552734 1.12638672 -0.75552734 1.12638672 0 0 Z " fill="#2E7EAA" transform="translate(180,110)"/>
<path d="M0 0 C0.66 0.33 1.32 0.66 2 1 C2.4140625 3.06640625 2.4140625 3.06640625 2.625 5.5625 C2.69976562 6.38878906 2.77453125 7.21507812 2.8515625 8.06640625 C2.90054687 8.70449219 2.94953125 9.34257812 3 10 C1.35 10.33 -0.3 10.66 -2 11 C-2 10.34 -2 9.68 -2 9 C-3.65 9 -5.3 9 -7 9 C-6.01 8.01 -5.02 7.02 -4 6 C-3.34 6.33 -2.68 6.66 -2 7 C-2.04125 6.21625 -2.0825 5.4325 -2.125 4.625 C-2 2 -2 2 0 0 Z " fill="#32B8FA" transform="translate(388,199)"/>
<path d="M0 0 C0 0.99 0 1.98 0 3 C-10.395 3.495 -10.395 3.495 -21 4 C-21 3.34 -21 2.68 -21 2 C-13.90961228 0.49025965 -7.24997422 -0.28307925 0 0 Z " fill="#157DB9" transform="translate(160,323)"/>
<path d="M0 0 C1.22589844 0.29197266 1.22589844 0.29197266 2.4765625 0.58984375 C3.41628906 0.82380859 3.41628906 0.82380859 4.375 1.0625 C4.375 1.7225 4.375 2.3825 4.375 3.0625 C2.6171875 4.00651042 0.859375 4.95052083 -0.8984375 5.89453125 C-2.93002365 7.11013493 -2.93002365 7.11013493 -4.625 10.0625 C-5.615 10.0625 -6.605 10.0625 -7.625 10.0625 C-7.955 9.0725 -8.285 8.0825 -8.625 7.0625 C-7.305 6.7325 -5.985 6.4025 -4.625 6.0625 C-4.625 5.0725 -4.625 4.0825 -4.625 3.0625 C-3.965 3.0625 -3.305 3.0625 -2.625 3.0625 C-2.625 2.4025 -2.625 1.7425 -2.625 1.0625 C-3.945 0.7325 -5.265 0.4025 -6.625 0.0625 C-3.99249612 -1.25375194 -2.82320944 -0.68563658 0 0 Z " fill="#227AAB" transform="translate(315.625,318.9375)"/>
<path d="M0 0 C0.33 0.66 0.66 1.32 1 2 C-0.24282012 4.45038293 -1.52882339 6.773325 -2.9375 9.125 C-3.32357422 9.78371094 -3.70964844 10.44242187 -4.10742188 11.12109375 C-5.06446578 12.751613 -6.03132815 14.37636184 -7 16 C-7.33 16 -7.66 16 -8 16 C-8 14.35 -8 12.7 -8 11 C-8.66 10.67 -9.32 10.34 -10 10 C-6.7 6.7 -3.4 3.4 0 0 Z " fill="#2F7FB0" transform="translate(350,287)"/>
<path d="M0 0 C2 1 2 1 3 2 C5.35313555 2.07271741 7.70833668 2.08370868 10.0625 2.0625 C11.35285156 2.05347656 12.64320313 2.04445312 13.97265625 2.03515625 C14.97167969 2.02355469 15.97070312 2.01195312 17 2 C17 2.33 17 2.66 17 3 C12.95904957 3.50590367 8.91713726 4.00367562 4.875 4.5 C3.73289062 4.64308594 2.59078125 4.78617188 1.4140625 4.93359375 C0.30546875 5.06894531 -0.803125 5.20429688 -1.9453125 5.34375 C-3.46922607 5.53227539 -3.46922607 5.53227539 -5.02392578 5.72460938 C-8.0340821 6.00315378 -10.97883394 6.04726727 -14 6 C-13.67 5.34 -13.34 4.68 -13 4 C-9.7 4 -6.4 4 -3 4 C-3 3.01 -3 2.02 -3 1 C-2.01 0.67 -1.02 0.34 0 0 Z " fill="#4AB3EF" transform="translate(323,137)"/>
<path d="M0 0 C-3.44767309 2.29844873 -7.02370903 3.67469403 -10.875 5.125 C-11.58269531 5.40214844 -12.29039062 5.67929688 -13.01953125 5.96484375 C-16.80736679 7.39674434 -19.88084322 8.37153179 -24 8 C-24 7.34 -24 6.68 -24 6 C-21.87607494 5.3299166 -19.75082476 4.66403203 -17.625 4 C-16.44164062 3.62875 -15.25828125 3.2575 -14.0390625 2.875 C-11 2 -11 2 -9 2 C-9 1.34 -9 0.68 -9 0 C-5.62182575 -0.84454356 -3.32534757 -1.10844919 0 0 Z " fill="#397FA7" transform="translate(237,119)"/>
<path d="M0 0 C0.33 0.66 0.66 1.32 1 2 C2.32 2 3.64 2 5 2 C4 5 4 5 1.8203125 6.16796875 C0.93085938 6.50441406 0.04140625 6.84085937 -0.875 7.1875 C-1.75929688 7.53167969 -2.64359375 7.87585938 -3.5546875 8.23046875 C-6 9 -6 9 -9 9 C-8.67 7.35 -8.34 5.7 -8 4 C-5.69 4 -3.38 4 -1 4 C-0.67 2.68 -0.34 1.36 0 0 Z " fill="#147EBA" transform="translate(271,350)"/>
<path d="M0 0 C0.99 0 1.98 0 3 0 C3.33 1.65 3.66 3.3 4 5 C2.35 5.33 0.7 5.66 -1 6 C-1 6.99 -1 7.98 -1 9 C-2.65 8.67 -4.3 8.34 -6 8 C-6 6.35 -6 4.7 -6 3 C-4.68 3.33 -3.36 3.66 -2 4 C-1.34 2.68 -0.68 1.36 0 0 Z " fill="#1A7DB6" transform="translate(166,147)"/>
<path d="M0 0 C5.94 0.33 11.88 0.66 18 1 C13.98012591 3.00993705 11.16212692 3.55305762 6.75 4.125 C4.85507813 4.37636719 4.85507813 4.37636719 2.921875 4.6328125 C1.47554687 4.81457031 1.47554687 4.81457031 0 5 C0 3.35 0 1.7 0 0 Z " fill="#42B3F1" transform="translate(224,290)"/>
<path d="M0 0 C1.65 0 3.3 0 5 0 C5.33 1.32 5.66 2.64 6 4 C7.65 4.33 9.3 4.66 11 5 C11.33 5.99 11.66 6.98 12 8 C9.69 8 7.38 8 5 8 C5 6.68 5 5.36 5 4 C3.35 4.33 1.7 4.66 0 5 C0 3.35 0 1.7 0 0 Z " fill="#177DBC" transform="translate(206,83)"/>
<path d="M0 0 C0.66 0 1.32 0 2 0 C0.47987323 5.40489519 -3.27385218 8.98492628 -7 13 C-9 10 -9 10 -8.625 7.8125 C-8.41875 7.214375 -8.2125 6.61625 -8 6 C-6.68 6 -5.36 6 -4 6 C-3.67 5.01 -3.34 4.02 -3 3 C-2.34 3 -1.68 3 -1 3 C-0.67 2.01 -0.34 1.02 0 0 Z " fill="#307DA6" transform="translate(362,259)"/>
<path d="M0 0 C0 0.66 0 1.32 0 2 C-6.76485645 3.6120509 -13.04958914 4.26618595 -20 4 C-19.67 3.34 -19.34 2.68 -19 2 C-12.76195973 0.22396745 -6.44994077 -0.24339399 0 0 Z " fill="#157DBC" transform="translate(256,307)"/>
<path d="M0 0 C1.40668945 0.01450195 1.40668945 0.01450195 2.84179688 0.02929688 C3.81826172 0.05443359 4.79472656 0.07957031 5.80078125 0.10546875 C6.78884766 0.11900391 7.77691406 0.13253906 8.79492188 0.14648438 C11.23492356 0.18184672 13.67382844 0.23119842 16.11328125 0.29296875 C16.11328125 0.62296875 16.11328125 0.95296875 16.11328125 1.29296875 C13.61400356 1.6326764 11.1140853 1.96484907 8.61328125 2.29296875 C7.9171875 2.38835937 7.22109375 2.48375 6.50390625 2.58203125 C1.66627996 3.20913095 -3.00853071 3.38086403 -7.88671875 3.29296875 C-5.42854811 0.24399315 -3.85656876 -0.07011943 0 0 Z " fill="#49B1EB" transform="translate(172.88671875,299.70703125)"/>
<path d="M0 0 C0 0.66 0 1.32 0 2 C-3.83098582 4.55399054 -6.44897135 6.26199535 -11 7 C-11 7.66 -11 8.32 -11 9 C-12.28650706 9.69710731 -13.57940665 10.38242876 -14.875 11.0625 C-15.59429687 11.44535156 -16.31359375 11.82820313 -17.0546875 12.22265625 C-17.69664062 12.47917969 -18.33859375 12.73570313 -19 13 C-19.66 12.67 -20.32 12.34 -21 12 C-18.58522432 10.37212884 -16.16829562 8.74762719 -13.75 7.125 C-13.06808594 6.66480469 -12.38617188 6.20460938 -11.68359375 5.73046875 C-11.01972656 5.28574219 -10.35585937 4.84101562 -9.671875 4.3828125 C-9.0644043 3.97434082 -8.45693359 3.56586914 -7.83105469 3.14501953 C-2.80170576 0 -2.80170576 0 0 0 Z " fill="#347FA4" transform="translate(233,66)"/>
<path d="M0 0 C2.29225435 0.11371497 4.58382388 0.24130964 6.875 0.375 C8.15117187 0.44460937 9.42734375 0.51421875 10.7421875 0.5859375 C14 1 14 1 16 3 C13.89651926 3.19504458 11.79217415 3.38078496 9.6875 3.5625 C8.51574219 3.66691406 7.34398437 3.77132812 6.13671875 3.87890625 C3 4 3 4 0 3 C0 2.01 0 1.02 0 0 Z " fill="#167DBA" transform="translate(346,88)"/>
<path d="M0 0 C1.9375 0.3125 1.9375 0.3125 4 1 C4.33 1.99 4.66 2.98 5 4 C5.66 4.33 6.32 4.66 7 5 C7 6.32 7 7.64 7 9 C6.01 9 5.02 9 4 9 C4 8.01 4 7.02 4 6 C1.36 5.34 -1.28 4.68 -4 4 C-3.67 3.34 -3.34 2.68 -3 2 C-2.01 2 -1.02 2 0 2 C0 1.34 0 0.68 0 0 Z " fill="#137EB0" transform="translate(233,66)"/>
<path d="M0 0 C1.32 0.33 2.64 0.66 4 1 C2.73034469 2.43854058 1.45922782 3.87579127 0.1875 5.3125 C-0.52019531 6.11300781 -1.22789063 6.91351563 -1.95703125 7.73828125 C-3.59337122 9.54983162 -5.25272168 11.29681703 -7 13 C-6.54965877 11.37276701 -6.08944646 9.74826336 -5.625 8.125 C-5.36976562 7.22007812 -5.11453125 6.31515625 -4.8515625 5.3828125 C-4 3 -4 3 -2 1 C-1.34 1.33 -0.68 1.66 0 2 C0 1.34 0 0.68 0 0 Z " fill="#4AB1EA" transform="translate(123,224)"/>
<path d="M0 0 C0 1.65 0 3.3 0 5 C-0.66 5 -1.32 5 -2 5 C-1.938125 5.78375 -1.87625 6.5675 -1.8125 7.375 C-1.874375 8.24125 -1.93625 9.1075 -2 10 C-2.99 10.66 -3.98 11.32 -5 12 C-5.12375 11.360625 -5.2475 10.72125 -5.375 10.0625 C-5.58125 9.381875 -5.7875 8.70125 -6 8 C-6.66 7.67 -7.32 7.34 -8 7 C-7.67 6.01 -7.34 5.02 -7 4 C-6.01 4 -5.02 4 -4 4 C-4 3.01 -4 2.02 -4 1 C-2 0 -2 0 0 0 Z " fill="#207DB9" transform="translate(338,303)"/>
<path d="M0 0 C0 0.99 0 1.98 0 3 C-0.99 3 -1.98 3 -3 3 C-3.33 3.99 -3.66 4.98 -4 6 C-4 5.34 -4 4.68 -4 4 C-4.66 4 -5.32 4 -6 4 C-6.33 4.66 -6.66 5.32 -7 6 C-8.84765625 6.8515625 -8.84765625 6.8515625 -11.0625 7.625 C-11.79597656 7.88539062 -12.52945313 8.14578125 -13.28515625 8.4140625 C-13.85105469 8.60742188 -14.41695312 8.80078125 -15 9 C-15.66 8.34 -16.32 7.68 -17 7 C-14.54379149 5.82866942 -12.08525083 4.66278278 -9.625 3.5 C-8.92632812 3.16613281 -8.22765625 2.83226562 -7.5078125 2.48828125 C-2.2265625 0 -2.2265625 0 0 0 Z " fill="#3781AB" transform="translate(259,53)"/>
<path d="M0 0 C0 0.66 0 1.32 0 2 C-2.046875 3.54296875 -2.046875 3.54296875 -4.75 5.1875 C-5.63171875 5.73792969 -6.5134375 6.28835938 -7.421875 6.85546875 C-10 8 -10 8 -12.328125 7.67578125 C-12.87984375 7.45277344 -13.4315625 7.22976563 -14 7 C-13.67 6.01 -13.34 5.02 -13 4 C-11.00390625 3.0859375 -11.00390625 3.0859375 -8.5625 2.375 C-0.60752688 0 -0.60752688 0 0 0 Z " fill="#2D7DA6" transform="translate(305,338)"/>
<path d="M0 0 C0.33 0.99 0.66 1.98 1 3 C-5.5 7 -5.5 7 -10 7 C-10 6.01 -10 5.02 -10 4 C-6.7 2.68 -3.4 1.36 0 0 Z " fill="#157CB8" transform="translate(303,335)"/>
<path d="M0 0 C5.60461531 0.42089996 10.72086547 0.91613111 16 3 C16 3.33 16 3.66 16 4 C9.525862 5.27170568 6.02341941 4.68902652 0 2 C0 1.34 0 0.68 0 0 Z " fill="#45B0F6" transform="translate(256,146)"/>
<path d="M0 0 C-0.98828125 1.45703125 -0.98828125 1.45703125 -3 3 C-5.79251583 3.37674518 -8.38779201 3.60191941 -11.1875 3.6875 C-11.93708984 3.72166016 -12.68667969 3.75582031 -13.45898438 3.79101562 C-15.30546838 3.87334294 -17.15270994 3.93835281 -19 4 C-15.74582055 2.20432025 -12.53428471 1.22618137 -8.9375 0.3125 C-7.89464844 0.04050781 -6.85179687 -0.23148437 -5.77734375 -0.51171875 C-3 -1 -3 -1 0 0 Z " fill="#357EA8" transform="translate(297,81)"/>
<path d="M0 0 C0.66 0.33 1.32 0.66 2 1 C2 1.66 2 2.32 2 3 C2.66 3.33 3.32 3.66 4 4 C3.319375 4.12375 2.63875 4.2475 1.9375 4.375 C-1.13171105 4.97884964 -1.13171105 4.97884964 -4.5625 6.125 C-7.89793613 6.97402011 -8.88978306 6.96641314 -12 6 C-10.04669132 4.96958487 -8.08718472 3.9509107 -6.125 2.9375 C-5.03445313 2.36902344 -3.94390625 1.80054688 -2.8203125 1.21484375 C-1.42425781 0.61349609 -1.42425781 0.61349609 0 0 Z " fill="#48B3EF" transform="translate(339,233)"/>
<path d="M0 0 C1.98 1.65 3.96 3.3 6 5 C5.67 6.32 5.34 7.64 5 9 C3.2925002 7.71937515 1.62626404 6.38232443 0 5 C0 4.34 0 3.68 0 3 C-1.65 3.66 -3.3 4.32 -5 5 C-3.35 3.35 -1.7 1.7 0 0 Z " fill="#46ADFF" transform="translate(375,209)"/>
<path d="M0 0 C1.04449911 3.13349732 0.93423645 3.98968256 0 7 C1.65 7.33 3.3 7.66 5 8 C4.67 8.66 4.34 9.32 4 10 C3.01 10.33 2.02 10.66 1 11 C0.01 10.01 -0.98 9.02 -2 8 C-2.66 8.66 -3.32 9.32 -4 10 C-4.41176754 6.39703406 -4.1535853 5.21597933 -2 2.1875 C-1.34 1.465625 -0.68 0.74375 0 0 Z " fill="#37B5FE" transform="translate(142,194)"/>
<path d="M0 0 C0.57234375 0.21527344 1.1446875 0.43054688 1.734375 0.65234375 C0.414375 0.98234375 -0.905625 1.31234375 -2.265625 1.65234375 C-2.265625 2.64234375 -2.265625 3.63234375 -2.265625 4.65234375 C-2.925625 4.65234375 -3.585625 4.65234375 -4.265625 4.65234375 C-4.265625 5.31234375 -4.265625 5.97234375 -4.265625 6.65234375 C-5.915625 6.65234375 -7.565625 6.65234375 -9.265625 6.65234375 C-9.595625 5.99234375 -9.925625 5.33234375 -10.265625 4.65234375 C-9.02618224 3.78292881 -7.77355441 2.93228918 -6.515625 2.08984375 C-5.81953125 1.61417969 -5.1234375 1.13851563 -4.40625 0.6484375 C-2.265625 -0.34765625 -2.265625 -0.34765625 0 0 Z " fill="#2577AA" transform="translate(226.265625,328.34765625)"/>
<path d="M0 0 C1.36420006 4.09260018 -0.2335485 6.47012659 -1.9375 10.1875 C-2.22818359 10.84169922 -2.51886719 11.49589844 -2.81835938 12.16992188 C-3.53695343 13.78381344 -4.2673588 15.39243655 -5 17 C-5.88336837 14.5332355 -6.1312406 13.36140628 -5.22265625 10.859375 C-4.83980469 10.16328125 -4.45695312 9.4671875 -4.0625 8.75 C-3.68222656 8.04359375 -3.30195313 7.3371875 -2.91015625 6.609375 C-2.60980469 6.07828125 -2.30945313 5.5471875 -2 5 C-2.66 4.01 -3.32 3.02 -4 2 C-2.68 1.34 -1.36 0.68 0 0 Z " fill="#4783A7" transform="translate(264,50)"/>
<path d="M0 0 C0 0.99 0 1.98 0 3 C-5.80766296 4.5056904 -10.9981863 5.21824777 -17 5 C-13.87498269 3.29679151 -10.80959616 2.29150949 -7.375 1.375 C-6.41335938 1.11460937 -5.45171875 0.85421875 -4.4609375 0.5859375 C-2 0 -2 0 0 0 Z " fill="#3A82A2" transform="translate(272,299)"/>
<path d="M0 0 C1 3 1 3 0.22265625 5.04296875 C-0.16019531 5.75066406 -0.54304688 6.45835937 -0.9375 7.1875 C-1.31777344 7.90292969 -1.69804687 8.61835938 -2.08984375 9.35546875 C-2.39019531 9.89816406 -2.69054687 10.44085938 -3 11 C-3.33 10.34 -3.66 9.68 -4 9 C-4.99 8.67 -5.98 8.34 -7 8 C-4.69 5.36 -2.38 2.72 0 0 Z " fill="#3E83A7" transform="translate(373,240)"/>
<path d="M0 0 C0.66 1.32 1.32 2.64 2 4 C-0.31 4 -2.62 4 -5 4 C-5 4.66 -5 5.32 -5 6 C-6.65 6 -8.3 6 -10 6 C-4.2 0 -4.2 0 0 0 Z " fill="#117EB9" transform="translate(195,122)"/>
<path d="M0 0 C-0.33 1.98 -0.66 3.96 -1 6 C-1.33 4.68 -1.66 3.36 -2 2 C-3.32 2 -4.64 2 -6 2 C-6 3.65 -6 5.3 -6 7 C-6.66 7 -7.32 7 -8 7 C-8 5.35 -8 3.7 -8 2 C-9.65 2 -11.3 2 -13 2 C-13 1.67 -13 1.34 -13 1 C-11.58366664 0.83052421 -10.16691467 0.66454493 -8.75 0.5 C-7.56664062 0.36078125 -7.56664062 0.36078125 -6.359375 0.21875 C-4 0 -4 0 0 0 Z " fill="#41809C" transform="translate(408,62)"/>
<path d="M0 0 C0.99 0 1.98 0 3 0 C2.67 0.99 2.34 1.98 2 3 C1.34 3 0.68 3 0 3 C0 3.66 0 4.32 0 5 C-2.31 5 -4.62 5 -7 5 C-7 4.01 -7 3.02 -7 2 C-4.69 2 -2.38 2 0 2 C0 1.34 0 0.68 0 0 Z " fill="#127DC1" transform="translate(240,325)"/>
<path d="M0 0 C0.66 0 1.32 0 2 0 C2 0.66 2 1.32 2 2 C2.99 2.33 3.98 2.66 5 3 C7 6 7 6 7 9 C6.01 9.33 5.02 9.66 4 10 C0.125 4.25 0.125 4.25 -1 2 C-0.67 1.34 -0.34 0.68 0 0 Z M4 6 C5 8 5 8 5 8 Z " fill="#2FB6FB" transform="translate(373,212)"/>
<path d="M0 0 C0 3.57575896 -1.08840607 5.05295935 -3 8 C-2.01 8 -1.02 8 0 8 C0 9.32 0 10.64 0 12 C-1.32 12 -2.64 12 -4 12 C-4.75 9.875 -4.75 9.875 -5 7 C-3.51209453 4.42096386 -2.11387131 2.11387131 0 0 Z " fill="#49B0EA" transform="translate(134,202)"/>
<path d="M0 0 C-0.33 0.99 -0.66 1.98 -1 3 C-1.66 3 -2.32 3 -3 3 C-3.2475 3.61875 -3.495 4.2375 -3.75 4.875 C-5.20628639 7.35068687 -6.37812506 7.95125002 -9 9 C-9 6 -9 6 -7.79296875 4.39453125 C-7.26316406 3.87246094 -6.73335937 3.35039062 -6.1875 2.8125 C-5.66542969 2.28269531 -5.14335937 1.75289062 -4.60546875 1.20703125 C-3 0 -3 0 0 0 Z " fill="#2FBAFE" transform="translate(158,180)"/>
<path d="M0 0 C2.97 0.33 5.94 0.66 9 1 C8.67 2.32 8.34 3.64 8 5 C5.33333333 4.33333333 2.66666667 3.66666667 0 3 C0 2.01 0 1.02 0 0 Z " fill="#1F80BA" transform="translate(368,87)"/>
<path d="M0 0 C1.65 0 3.3 0 5 0 C5 0.66 5 1.32 5 2 C5.99 2 6.98 2 8 2 C7.34 3.65 6.68 5.3 6 7 C5.34 6.67 4.68 6.34 4 6 C4 5.34 4 4.68 4 4 C3.01 4 2.02 4 1 4 C0.67 2.68 0.34 1.36 0 0 Z " fill="#42B2F6" transform="translate(381,208)"/>
<path d="M0 0 C0 0.66 0 1.32 0 2 C-1.95513161 2.696553 -3.91422476 3.38199565 -5.875 4.0625 C-6.96554688 4.44535156 -8.05609375 4.82820313 -9.1796875 5.22265625 C-12 6 -12 6 -14 5 C-13 3 -13 3 -10.8203125 2.1484375 C-9.93085938 1.89320312 -9.04140625 1.63796875 -8.125 1.375 C-7.24070313 1.11460938 -6.35640625 0.85421875 -5.4453125 0.5859375 C-3 0 -3 0 0 0 Z " fill="#3981AE" transform="translate(252,113)"/>
<path d="M0 0 C0.66 0 1.32 0 2 0 C2.33 0.66 2.66 1.32 3 2 C3.66 2.66 4.32 3.32 5 4 C-0.75 7 -0.75 7 -3 7 C-2.25 2.25 -2.25 2.25 0 0 Z " fill="#217DB3" transform="translate(183,108)"/>
<path d="M0 0 C-0.639375 0.103125 -1.27875 0.20625 -1.9375 0.3125 C-2.618125 0.539375 -3.29875 0.76625 -4 1 C-4.33 1.99 -4.66 2.98 -5 4 C-9.09724467 5.54613006 -11.81857651 6.29227216 -16 5 C-13.90163996 3.96728358 -11.79609109 2.94916283 -9.6875 1.9375 C-8.51574219 1.36902344 -7.34398437 0.80054688 -6.13671875 0.21484375 C-3 -1 -3 -1 0 0 Z " fill="#3A80AB" transform="translate(320,282)"/>
<path d="M0 0 C0 3.97378549 -1.34753657 5.12649795 -4 8 C-6.25 9.3125 -6.25 9.3125 -8 10 C-8.33 9.01 -8.66 8.02 -9 7 C-7.1875 5 -7.1875 5 -5 3 C-4.01 3 -3.02 3 -2 3 C-2 2.34 -2 1.68 -2 1 C-1.34 0.67 -0.68 0.34 0 0 Z " fill="#3DB7EB" transform="translate(380,220)"/>
<path d="M0 0 C0 2.83967231 -0.40267181 5.23735711 -1 8 C-1.66 8 -2.32 8 -3 8 C-3 7.34 -3 6.68 -3 6 C-4.65 7.32 -6.3 8.64 -8 10 C-8.66 9.67 -9.32 9.34 -10 9 C-6.7 6.03 -3.4 3.06 0 0 Z " fill="#4CB1EA" transform="translate(387,198)"/>
<path d="M0 0 C0.66 0.33 1.32 0.66 2 1 C1.01 2.485 1.01 2.485 0 4 C-0.99 4 -1.98 4 -3 4 C-3 4.66 -3 5.32 -3 6 C-3.66 6 -4.32 6 -5 6 C-5.33 6.66 -5.66 7.32 -6 8 C-6.99 7.34 -7.98 6.68 -9 6 C-6.03 4.02 -3.06 2.04 0 0 Z " fill="#47B1EF" transform="translate(181,159)"/>
<path d="M0 0 C2.64 0 5.28 0 8 0 C8 0.99 8 1.98 8 3 C4.37 3 0.74 3 -3 3 C-2.01 2.67 -1.02 2.34 0 2 C0 1.34 0 0.68 0 0 Z " fill="#2DBBFE" transform="translate(312,138)"/>
<path d="M0 0 C4.29 0 8.58 0 13 0 C9.61885051 1.69057475 7.3700175 2.45815467 3.75 3.125 C2.41195312 3.37636719 2.41195312 3.37636719 1.046875 3.6328125 C0.37140625 3.75398437 -0.3040625 3.87515625 -1 4 C-0.67 2.68 -0.34 1.36 0 0 Z " fill="#46B2ED" transform="translate(249,151)"/>
<path d="M0 0 C-3.26737303 3.26737303 -6.83168198 3.95672896 -11.375 4.125 C-12.24125 4.08375 -13.1075 4.0425 -14 4 C-8.89306527 0.08468337 -6.36484364 -0.10265877 0 0 Z " fill="#2EB9FD" transform="translate(230,140)"/>
<path d="M0 0 C0.763125 0.20625 1.52625 0.4125 2.3125 0.625 C2.3125 1.615 2.3125 2.605 2.3125 3.625 C-0.3275 3.625 -2.9675 3.625 -5.6875 3.625 C-5.6875 2.965 -5.6875 2.305 -5.6875 1.625 C-2.6875 -0.375 -2.6875 -0.375 0 0 Z " fill="#137DBF" transform="translate(287.6875,343.375)"/>
<path d="M0 0 C0.99 0.33 1.98 0.66 3 1 C1.40629329 2.36646148 -0.20032982 3.71787166 -1.8125 5.0625 C-3.15248047 6.19365234 -3.15248047 6.19365234 -4.51953125 7.34765625 C-5.74736328 8.16556641 -5.74736328 8.16556641 -7 9 C-7.99 8.67 -8.98 8.34 -10 8 C-9.21625 7.566875 -8.4325 7.13375 -7.625 6.6875 C-4.78301625 5.10779753 -4.78301625 5.10779753 -3 2 C-2.01 2 -1.02 2 0 2 C0 1.34 0 0.68 0 0 Z " fill="#3B7E9D" transform="translate(320,325)"/>
<path d="M0 0 C2.31 0 4.62 0 7 0 C4.22719294 3.08089673 1.93673644 4.68775452 -2 6 C-1.34 4.02 -0.68 2.04 0 0 Z " fill="#2D7BA5" transform="translate(322,293)"/>
<path d="M0 0 C0.66 0.33 1.32 0.66 2 1 C1.34 2.98 0.68 4.96 0 7 C-2.97 6.505 -2.97 6.505 -6 6 C-4 4 -2 2 0 0 Z " fill="#45B3F1" transform="translate(166,169)"/>
<path d="M0 0 C0 3.96130371 -1.34877125 4.82914401 -4 7.6875 C-4.7425 8.49574219 -5.485 9.30398437 -6.25 10.13671875 C-6.8275 10.75160156 -7.405 11.36648437 -8 12 C-8.99 11.67 -9.98 11.34 -11 11 C-7.37 7.37 -3.74 3.74 0 0 Z " fill="#32799C" transform="translate(175,134)"/>
<path d="M0 0 C0.79921875 0.00902344 1.5984375 0.01804687 2.421875 0.02734375 C3.02515625 0.03894531 3.6284375 0.05054687 4.25 0.0625 C1.2030371 1.75683918 -1.57821466 2.55717112 -5 3.1875 C-6.33804687 3.43886719 -6.33804687 3.43886719 -7.703125 3.6953125 C-8.37859375 3.81648438 -9.0540625 3.93765625 -9.75 4.0625 C-9.42 3.0725 -9.09 2.0825 -8.75 1.0625 C-5.8585914 -0.0569613 -3.07237388 -0.04518197 0 0 Z " fill="#3882AB" transform="translate(266.75,108.9375)"/>
<path d="M0 0 C2.97 0 5.94 0 9 0 C8.01 0.495 8.01 0.495 7 1 C7 1.66 7 2.32 7 3 C4.69 3 2.38 3 0 3 C0 2.01 0 1.02 0 0 Z " fill="#2D81AC" transform="translate(129,324)"/>
<path d="M0 0 C2.31 0 4.62 0 7 0 C7 0.66 7 1.32 7 2 C7.66 2 8.32 2 9 2 C8.67 2.66 8.34 3.32 8 4 C5.36 3.67 2.72 3.34 0 3 C0 2.01 0 1.02 0 0 Z " fill="#157EBC" transform="translate(249,322)"/>
<path d="M0 0 C1.5 1.3125 1.5 1.3125 3 3 C3 3.99 3 4.98 3 6 C1.35 5.67 -0.3 5.34 -2 5 C-2.33 3.68 -2.66 2.36 -3 1 C-2.01 0.67 -1.02 0.34 0 0 Z " fill="#32B8FE" transform="translate(349,241)"/>
<path d="M0 0 C-1.65 1.65 -3.3 3.3 -5 5 C-5.99 4.67 -6.98 4.34 -8 4 C-8 3.01 -8 2.02 -8 1 C-5.29120665 -0.35439668 -2.99066732 -0.06501451 0 0 Z " fill="#43B3F0" transform="translate(163,192)"/>
<path d="M0 0 C2.64 0.66 5.28 1.32 8 2 C6.71034824 3.37562854 5.37310707 4.70766393 4 6 C3.34 6 2.68 6 2 6 C2 5.01 2 4.02 2 3 C1.01 3 0.02 3 -1 3 C-0.67 2.01 -0.34 1.02 0 0 Z " fill="#46B4F1" transform="translate(161,186)"/>
<path d="M0 0 C2.64 0.66 5.28 1.32 8 2 C5.06171403 4.50298434 2.82097239 5.46930939 -1 6 C-0.34 5.01 0.32 4.02 1 3 C0.67 2.01 0.34 1.02 0 0 Z " fill="#41B2F3" transform="translate(200,166)"/>
<path d="M0 0 C0 1.32 0 2.64 0 4 C-0.99 4.33 -1.98 4.66 -3 5 C-3.33 5.66 -3.66 6.32 -4 7 C-5.32 6.67 -6.64 6.34 -8 6 C-7.0479279 4.99403703 -6.08812654 3.99538437 -5.125 3 C-4.59132812 2.443125 -4.05765625 1.88625 -3.5078125 1.3125 C-2 0 -2 0 0 0 Z " fill="#1180B9" transform="translate(176,137)"/>
<path d="M0 0 C0.99 0.33 1.98 0.66 3 1 C2.67 2.98 2.34 4.96 2 7 C0.68 7 -0.64 7 -2 7 C-1.125 1.125 -1.125 1.125 0 0 Z " fill="#157CBE" transform="translate(249,73)"/>
<path d="M0 0 C0.33 0 0.66 0 1 0 C0.85892253 1.45880109 0.71197585 2.91703551 0.5625 4.375 C0.48128906 5.18710937 0.40007812 5.99921875 0.31640625 6.8359375 C0 9 0 9 -1 11 C-1.99 10.67 -2.98 10.34 -4 10 C-2.68 6.7 -1.36 3.4 0 0 Z " fill="#3481AB" transform="translate(268,335)"/>
<path d="M0 0 C-3.18762365 2.12508244 -5.26512223 2.5020163 -9 3 C-8.6875 1.0625 -8.6875 1.0625 -8 -1 C-4.37673261 -2.2077558 -3.35853631 -1.54311128 0 0 Z " fill="#317AA4" transform="translate(285,316)"/>
<path d="M0 0 C2.31 0 4.62 0 7 0 C7.33 0.99 7.66 1.98 8 3 C5.36 3 2.72 3 0 3 C0 2.01 0 1.02 0 0 Z " fill="#3BB8ED" transform="translate(256,266)"/>
<path d="M0 0 C0 2.33333333 0 4.66666667 0 7 C0.66 7 1.32 7 2 7 C1.34 8.32 0.68 9.64 0 11 C-2 7.25 -2 7.25 -2 5 C-2.66 4.67 -3.32 4.34 -4 4 C-2.68 2.68 -1.36 1.36 0 0 Z " fill="#53AFEA" transform="translate(397,187)"/>
<path d="M0 0 C0.66 0.33 1.32 0.66 2 1 C1.25 5.75 1.25 5.75 -1 8 C-1.33 7.34 -1.66 6.68 -2 6 C-2.66 5.67 -3.32 5.34 -4 5 C-2.68 3.35 -1.36 1.7 0 0 Z " fill="#47B2F1" transform="translate(402,181)"/>
<path d="M0 0 C0.33 1.32 0.66 2.64 1 4 C-2.64793184 5.27253436 -6.1936543 6.32829194 -10 7 C-6.80331012 4.3513141 -3.60513403 2.06007659 0 0 Z " fill="#3280A6" transform="translate(204,113)"/>
<path d="M0 0 C1.98 0 3.96 0 6 0 C6 0.66 6 1.32 6 2 C0.58823529 6 0.58823529 6 -2 6 C-2 5.34 -2 4.68 -2 4 C-1.34 4 -0.68 4 0 4 C0 2.68 0 1.36 0 0 Z " fill="#3180A8" transform="translate(194,101)"/>
<path d="M0 0 C2.31 0.33 4.62 0.66 7 1 C3.31265242 3.45823172 0.30300029 4.01242616 -4 5 C-4 4.34 -4 3.68 -4 3 C-2.68 3 -1.36 3 0 3 C0 2.01 0 1.02 0 0 Z " fill="#3281A7" transform="translate(233,82)"/>
<path d="M0 0 C0.99 0 1.98 0 3 0 C1.8141763 3.37503669 0.72426311 5.64722731 -2 8 C-2.33 6.35 -2.66 4.7 -3 3 C-2.01 3.33 -1.02 3.66 0 4 C-0.33 3.01 -0.66 2.02 -1 1 C-0.67 0.67 -0.34 0.34 0 0 Z " fill="#48B2EA" transform="translate(393,199)"/>
<path d="M0 0 C1.22589844 0.01353516 1.22589844 0.01353516 2.4765625 0.02734375 C3.41628906 0.04474609 3.41628906 0.04474609 4.375 0.0625 C1.97736815 2.46013185 1.04226502 2.40530586 -2.25 2.6875 C-3.06726563 2.76226562 -3.88453125 2.83703125 -4.7265625 2.9140625 C-5.35304688 2.96304688 -5.97953125 3.01203125 -6.625 3.0625 C-6.625 2.4025 -6.625 1.7425 -6.625 1.0625 C-4.21954362 -0.14022819 -2.67503047 -0.03821472 0 0 Z " fill="#317CA5" transform="translate(299.625,100.9375)"/>
<path d="M0 0 C0 0.99 0 1.98 0 3 C-2.64 3 -5.28 3 -8 3 C-8 2.34 -8 1.68 -8 1 C-5.29120665 -0.35439668 -2.99066732 -0.06501451 0 0 Z " fill="#147CC1" transform="translate(336,74)"/>
<path d="M0 0 C1.98 0 3.96 0 6 0 C5.34 1.32 4.68 2.64 4 4 C2.68 3.67 1.36 3.34 0 3 C0 2.01 0 1.02 0 0 Z " fill="#1480B9" transform="translate(323,290)"/>
<path d="M0 0 C-1.375 2 -1.375 2 -3 4 C-3.66 4 -4.32 4 -5 4 C-5 3.34 -5 2.68 -5 2 C-5.99 1.67 -6.98 1.34 -8 1 C-3.375 -1.125 -3.375 -1.125 0 0 Z " fill="#2E7CB6" transform="translate(339,286)"/>
<path d="M0 0 C1.1196437 3.35893109 1.07992835 4.67714354 0 8 C-2.0625 9.8125 -2.0625 9.8125 -4 11 C-3.52269162 9.5410574 -3.04308958 8.08286504 -2.5625 6.625 C-2.29566406 5.81289062 -2.02882812 5.00078125 -1.75390625 4.1640625 C-1 2 -1 2 0 0 Z " fill="#3C82B4" transform="translate(152,163)"/>
<path d="M0 0 C0 0.99 0 1.98 0 3 C-0.99 3.33 -1.98 3.66 -3 4 C-3.73323796 6.01508358 -3.73323796 6.01508358 -4 8 C-5.32 7.67 -6.64 7.34 -8 7 C-5.36 4.69 -2.72 2.38 0 0 Z " fill="#397FA6" transform="translate(205,83)"/>
<path d="M0 0 C2.475 0.99 2.475 0.99 5 2 C3.68 2.33 2.36 2.66 1 3 C0.67 4.65 0.34 6.3 0 8 C0.66 8.33 1.32 8.66 2 9 C1.01 9 0.02 9 -1 9 C-0.67 6.03 -0.34 3.06 0 0 Z " fill="#1F79A9" transform="translate(262,351)"/>
<path d="M0 0 C2.97 0 5.94 0 9 0 C9 0.33 9 0.66 9 1 C6.03 1 3.06 1 0 1 C0 0.67 0 0.34 0 0 Z M-4 1 C-2.68 1 -1.36 1 0 1 C-0.33 1.99 -0.66 2.98 -1 4 C-1.99 4 -2.98 4 -4 4 C-4 3.01 -4 2.02 -4 1 Z " fill="#2AB9FF" transform="translate(276,272)"/>
<path d="M0 0 C0.99 0 1.98 0 3 0 C3.33 1.98 3.66 3.96 4 6 C2.35 5.67 0.7 5.34 -1 5 C-0.67 3.35 -0.34 1.7 0 0 Z " fill="#2EBBFC" transform="translate(392,192)"/>
<path d="M0 0 C0.99 0 1.98 0 3 0 C1.60667426 3.36720387 0.0210714 4.9859524 -3 7 C-2.25 2.25 -2.25 2.25 0 0 Z " fill="#3B7F9F" transform="translate(175,119)"/>
<path d="M0 0 C-2.17424117 2.50037734 -3.73045798 3.43628586 -7 4 C-7.33 3.01 -7.66 2.02 -8 1 C-5.29120665 -0.35439668 -2.99066732 -0.06501451 0 0 Z " fill="#3880A7" transform="translate(289,348)"/>
<path d="M0 0 C1.98 0 3.96 0 6 0 C3.31158141 2.25245881 1.35358125 3.88213958 -2 5 C-1.34 3.35 -0.68 1.7 0 0 Z " fill="#397FA9" transform="translate(314,299)"/>
<path d="M0 0 C0.33 0.66 0.66 1.32 1 2 C0.06553465 4.03144641 -0.93224776 6.03533587 -2 8 C-3.32 7.34 -4.64 6.68 -6 6 C-4.02 4.02 -2.04 2.04 0 0 Z " fill="#4484A5" transform="translate(350,287)"/>
<path d="M0 0 C1.98 0.66 3.96 1.32 6 2 C4.68 3.32 3.36 4.64 2 6 C1.34 5.67 0.68 5.34 0 5 C0.33 4.34 0.66 3.68 1 3 C0.34 3 -0.32 3 -1 3 C-0.67 2.01 -0.34 1.02 0 0 Z " fill="#49B0EF" transform="translate(346,245)"/>
<path d="M0 0 C0.66 0 1.32 0 2 0 C1.5206753 4.31392226 0.2542015 6.16569547 -3 9 C-2.01 6.03 -1.02 3.06 0 0 Z " fill="#3DB5EF" transform="translate(119,228)"/>
<path d="M0 0 C-1.28913487 0.67154933 -2.58140204 1.33708859 -3.875 2 C-4.59429687 2.37125 -5.31359375 2.7425 -6.0546875 3.125 C-8 4 -8 4 -10 4 C-10 3.01 -10 2.02 -10 1 C-3.375 -1.125 -3.375 -1.125 0 0 Z " fill="#3A7EA8" transform="translate(221,91)"/>
<path d="M0 0 C-2 2 -2 2 -5.625 2.125 C-6.73875 2.08375 -7.8525 2.0425 -9 2 C-8 0 -8 0 -6.1875 -0.6875 C-3.81180233 -1.02688538 -2.26664171 -0.72856341 0 0 Z " fill="#357CA9" transform="translate(284,297)"/>
<path d="M0 0 C4.455 0.99 4.455 0.99 9 2 C6 4 6 4 2.8125 3.625 C1.884375 3.41875 0.95625 3.2125 0 3 C0 2.01 0 1.02 0 0 Z " fill="#49AEEF" transform="translate(304,267)"/>
<path d="M0 0 C-1.1875 1.5 -1.1875 1.5 -3 3 C-5.6875 3.1875 -5.6875 3.1875 -8 3 C-8 2.34 -8 1.68 -8 1 C-5.29120665 -0.35439668 -2.99066732 -0.06501451 0 0 Z " fill="#3178A5" transform="translate(221,124)"/>
<path d="M0 0 C0.66 0 1.32 0 2 0 C1.34 1.98 0.68 3.96 0 6 C-1.65 6 -3.3 6 -5 6 C-4.34 5.01 -3.68 4.02 -3 3 C-2.01 3 -1.02 3 0 3 C0 2.01 0 1.02 0 0 Z " fill="#1C82C2" transform="translate(240,96)"/>
<path d="M0 0 C1.98 0 3.96 0 6 0 C5.67 0.99 5.34 1.98 5 3 C2.9375 3.6875 2.9375 3.6875 1 4 C0.67 2.68 0.34 1.36 0 0 Z " fill="#2B7CAA" transform="translate(201,96)"/>
<path d="M0 0 C1.98 0 3.96 0 6 0 C6 0.99 6 1.98 6 3 C3.69 2.67 1.38 2.34 -1 2 C-0.67 1.34 -0.34 0.68 0 0 Z " fill="#107EBC" transform="translate(378,67)"/>
<path d="M0 0 C1.98 0 3.96 0 6 0 C6 0.99 6 1.98 6 3 C4.35 3 2.7 3 1 3 C0.67 2.01 0.34 1.02 0 0 Z " fill="#1281AB" transform="translate(170,341)"/>
<path d="M0 0 C0.99 0.99 1.98 1.98 3 3 C2.34 3 1.68 3 1 3 C0.67 3.66 0.34 4.32 0 5 C0 4.34 0 3.68 0 3 C-1.65 3.66 -3.3 4.32 -5 5 C-3.35 3.35 -1.7 1.7 0 0 Z " fill="#49B0EA" transform="translate(375,209)"/>
<path d="M0 0 C0.99 0 1.98 0 3 0 C3.33 1.65 3.66 3.3 4 5 C1.525 4.01 1.525 4.01 -1 3 C-0.67 2.01 -0.34 1.02 0 0 Z " fill="#1081BA" transform="translate(166,147)"/>
<path d="M0 0 C0.99 0.33 1.98 0.66 3 1 C2.67 1.66 2.34 2.32 2 3 C-0.64860427 3.59355614 -3.29197322 3.74209269 -6 4 C-4.03617993 2.49440461 -2.21736634 1.10868317 0 0 Z " fill="#47B3F2" transform="translate(207,145)"/>
<path d="M0 0 C2.475 0.495 2.475 0.495 5 1 C4.67 1.99 4.34 2.98 4 4 C2.68 4 1.36 4 0 4 C0 2.68 0 1.36 0 0 Z " fill="#2676B5" transform="translate(256,102)"/>
<path d="M0 0 C0 1.65 0 3.3 0 5 C-0.61875 4.814375 -1.2375 4.62875 -1.875 4.4375 C-4.04160178 3.76313824 -4.04160178 3.76313824 -6 5 C-3.74193548 0 -3.74193548 0 0 0 Z " fill="#2576AE" transform="translate(192,99)"/>
<path d="M0 0 C2.97 0.495 2.97 0.495 6 1 C5.67 1.99 5.34 2.98 5 4 C2.03 3.505 2.03 3.505 -1 3 C-0.67 2.01 -0.34 1.02 0 0 Z " fill="#257BB8" transform="translate(196,98)"/>
<path d="M0 0 C0.33 0.99 0.66 1.98 1 3 C0.34 3.66 -0.32 4.32 -1 5 C-1.33 4.34 -1.66 3.68 -2 3 C-1.34 2.01 -0.68 1.02 0 0 Z " fill="#58ABDF" transform="translate(405,177)"/>
<path d="" fill="#8A9FB0" transform="translate(0,0)"/>
<path d="" fill="#9C94A9" transform="translate(0,0)"/>
<path d="" fill="#73B3CB" transform="translate(0,0)"/>
<path d="" fill="#8DACC3" transform="translate(0,0)"/>
<path d="" fill="#668A94" transform="translate(0,0)"/>
<path d="" fill="#619DD9" transform="translate(0,0)"/>
<path d="" fill="#979DB5" transform="translate(0,0)"/>
</svg>
